<mxfile host="app.diagrams.net" modified="2024-07-07T10:00:15.090Z" agent="Mozilla/5.0 (Windows NT 10.0; Win64; x64) AppleWebKit/537.36 (KHTML, like Gecko) Chrome/126.0.0.0 Safari/537.36" version="24.6.4" etag="BVi9Fet_5-H3N-lxrEMm" type="github">
  <diagram name="Page-1" id="kVnBQmG_EeLn0GyvdQ05">
    <mxGraphModel>
      <root>
        <mxCell id="0" />
        <mxCell id="1" parent="0" />
      </root>
    </mxGraphModel>
  </diagram>
</mxfile>
